<svg width="25" height="25" viewBox="0 0 25 25" fill="none" xmlns="http://www.w3.org/2000/svg">
<path d="M23.9583 19.7917C23.9583 20.3442 23.7388 20.8741 23.3481 21.2648C22.9574 21.6555 22.4275 21.875 21.875 21.875H3.12499C2.57246 21.875 2.04255 21.6555 1.65185 21.2648C1.26115 20.8741 1.04166 20.3442 1.04166 19.7917V8.33333C1.04166 7.7808 1.26115 7.25089 1.65185 6.86019C2.04255 6.46949 2.57246 6.25 3.12499 6.25H7.29166L9.37499 3.125H15.625L17.7083 6.25H21.875C22.4275 6.25 22.9574 6.46949 23.3481 6.86019C23.7388 7.25089 23.9583 7.7808 23.9583 8.33333V19.7917Z" stroke="#1E1E1E" stroke-width="2" stroke-linecap="round" stroke-linejoin="round"/>
<path d="M12.5 17.7083C14.8012 17.7083 16.6667 15.8429 16.6667 13.5417C16.6667 11.2405 14.8012 9.375 12.5 9.375C10.1988 9.375 8.33332 11.2405 8.33332 13.5417C8.33332 15.8429 10.1988 17.7083 12.5 17.7083Z" stroke="#1E1E1E" stroke-width="2" stroke-linecap="round" stroke-linejoin="round"/>
</svg>
