<svg width="25" height="25" viewBox="0 0 25 25" fill="none" xmlns="http://www.w3.org/2000/svg">
<path d="M11.4583 4.16668H4.16667C3.61413 4.16668 3.08423 4.38617 2.69353 4.77687C2.30283 5.16757 2.08333 5.69748 2.08333 6.25001V20.8333C2.08333 21.3859 2.30283 21.9158 2.69353 22.3065C3.08423 22.6972 3.61413 22.9167 4.16667 22.9167H18.75C19.3025 22.9167 19.8324 22.6972 20.2231 22.3065C20.6138 21.9158 20.8333 21.3859 20.8333 20.8333V13.5417M19.2708 2.60418C19.6852 2.18978 20.2473 1.95697 20.8333 1.95697C21.4194 1.95697 21.9814 2.18978 22.3958 2.60418C22.8102 3.01858 23.043 3.58063 23.043 4.16668C23.043 4.75273 22.8102 5.31478 22.3958 5.72918L12.5 15.625L8.33333 16.6667L9.375 12.5L19.2708 2.60418Z" stroke="#1E1E1E" stroke-width="2" stroke-linecap="round" stroke-linejoin="round"/>
</svg>
