<svg width="25" height="25" viewBox="0 0 25 25" fill="none" xmlns="http://www.w3.org/2000/svg">
<g clip-path="url(#clip0_93_2027)">
<path d="M12.5 15.625C14.2259 15.625 15.625 14.2259 15.625 12.5C15.625 10.7741 14.2259 9.37499 12.5 9.37499C10.7741 9.37499 9.37501 10.7741 9.37501 12.5C9.37501 14.2259 10.7741 15.625 12.5 15.625Z" stroke="#1E1E1E" stroke-width="2" stroke-linecap="round" stroke-linejoin="round"/>
<path d="M20.2083 15.625C20.0697 15.9392 20.0283 16.2877 20.0896 16.6256C20.1509 16.9635 20.3119 17.2753 20.5521 17.5208L20.6146 17.5833C20.8083 17.7768 20.962 18.0066 21.0668 18.2595C21.1716 18.5124 21.2256 18.7835 21.2256 19.0573C21.2256 19.3311 21.1716 19.6022 21.0668 19.8551C20.962 20.108 20.8083 20.3378 20.6146 20.5312C20.4211 20.7249 20.1913 20.8786 19.9384 20.9834C19.6855 21.0883 19.4144 21.1423 19.1406 21.1423C18.8668 21.1423 18.5958 21.0883 18.3428 20.9834C18.0899 20.8786 17.8602 20.7249 17.6667 20.5312L17.6042 20.4687C17.3587 20.2286 17.0469 20.0675 16.709 20.0062C16.371 19.945 16.0225 19.9863 15.7083 20.125C15.4002 20.257 15.1375 20.4763 14.9524 20.7558C14.7673 21.0352 14.668 21.3627 14.6667 21.6979V21.875C14.6667 22.4275 14.4472 22.9574 14.0565 23.3481C13.6658 23.7388 13.1359 23.9583 12.5833 23.9583C12.0308 23.9583 11.5009 23.7388 11.1102 23.3481C10.7195 22.9574 10.5 22.4275 10.5 21.875V21.7812C10.4919 21.4365 10.3803 21.1021 10.1797 20.8216C9.97907 20.541 9.69869 20.3274 9.37501 20.2083C9.06082 20.0697 8.7123 20.0283 8.37439 20.0896C8.03648 20.1508 7.72467 20.3119 7.47917 20.5521L7.41667 20.6146C7.22319 20.8083 6.99342 20.9619 6.74051 21.0668C6.48759 21.1716 6.2165 21.2256 5.94271 21.2256C5.66893 21.2256 5.39783 21.1716 5.14492 21.0668C4.89201 20.9619 4.66224 20.8083 4.46876 20.6146C4.27505 20.4211 4.12139 20.1913 4.01655 19.9384C3.91171 19.6855 3.85774 19.4144 3.85774 19.1406C3.85774 18.8668 3.91171 18.5957 4.01655 18.3428C4.12139 18.0899 4.27505 17.8601 4.46876 17.6667L4.53126 17.6042C4.7714 17.3587 4.93249 17.0468 4.99376 16.7089C5.05503 16.371 5.01367 16.0225 4.87501 15.7083C4.74296 15.4002 4.52371 15.1375 4.24424 14.9524C3.96477 14.7673 3.63728 14.668 3.30209 14.6667H3.12501C2.57247 14.6667 2.04257 14.4472 1.65187 14.0565C1.26117 13.6658 1.04167 13.1359 1.04167 12.5833C1.04167 12.0308 1.26117 11.5009 1.65187 11.1102C2.04257 10.7195 2.57247 10.5 3.12501 10.5H3.21876C3.56354 10.4919 3.89793 10.3803 4.17844 10.1797C4.45896 9.97906 4.67263 9.69867 4.79167 9.37499C4.93033 9.06081 4.9717 8.71229 4.91043 8.37438C4.84916 8.03647 4.68806 7.72466 4.44792 7.47916L4.38542 7.41666C4.19172 7.22317 4.03806 6.9934 3.93321 6.74049C3.82837 6.48758 3.77441 6.21648 3.77441 5.9427C3.77441 5.66892 3.82837 5.39782 3.93321 5.14491C4.03806 4.89199 4.19172 4.66223 4.38542 4.46874C4.57891 4.27504 4.80868 4.12137 5.06159 4.01653C5.3145 3.91169 5.5856 3.85773 5.85938 3.85773C6.13316 3.85773 6.40426 3.91169 6.65717 4.01653C6.91009 4.12137 7.13985 4.27504 7.33334 4.46874L7.39584 4.53124C7.64134 4.77138 7.95315 4.93248 8.29106 4.99374C8.62897 5.05501 8.97749 5.01365 9.29167 4.87499H9.37501C9.6831 4.74295 9.94586 4.52369 10.1309 4.24422C10.316 3.96476 10.4153 3.63727 10.4167 3.30207V3.12499C10.4167 2.57246 10.6362 2.04255 11.0269 1.65185C11.4176 1.26115 11.9475 1.04166 12.5 1.04166C13.0525 1.04166 13.5824 1.26115 13.9731 1.65185C14.3638 2.04255 14.5833 2.57246 14.5833 3.12499V3.21874C14.5847 3.55393 14.684 3.88142 14.8691 4.16089C15.0542 4.44036 15.3169 4.65961 15.625 4.79166C15.9392 4.93032 16.2877 4.97168 16.6256 4.91041C16.9635 4.84914 17.2753 4.68805 17.5208 4.44791L17.5833 4.38541C17.7768 4.19171 18.0066 4.03804 18.2595 3.9332C18.5124 3.82836 18.7835 3.77439 19.0573 3.77439C19.3311 3.77439 19.6022 3.82836 19.8551 3.9332C20.108 4.03804 20.3378 4.19171 20.5313 4.38541C20.725 4.57889 20.8786 4.80866 20.9835 5.06157C21.0883 5.31449 21.1423 5.58558 21.1423 5.85937C21.1423 6.13315 21.0883 6.40424 20.9835 6.65716C20.8786 6.91007 20.725 7.13984 20.5313 7.33332L20.4688 7.39582C20.2286 7.64132 20.0675 7.95313 20.0063 8.29104C19.945 8.62896 19.9863 8.97747 20.125 9.29166V9.37499C20.2571 9.68308 20.4763 9.94584 20.7558 10.1309C21.0352 10.316 21.3627 10.4153 21.6979 10.4167H21.875C22.4275 10.4167 22.9574 10.6362 23.3481 11.0269C23.7388 11.4176 23.9583 11.9475 23.9583 12.5C23.9583 13.0525 23.7388 13.5824 23.3481 13.9731C22.9574 14.3638 22.4275 14.5833 21.875 14.5833H21.7813C21.4461 14.5847 21.1186 14.684 20.8391 14.8691C20.5596 15.0541 20.3404 15.3169 20.2083 15.625Z" stroke="#1E1E1E" stroke-width="2" stroke-linecap="round" stroke-linejoin="round"/>
</g>
<defs>
<clipPath id="clip0_93_2027">
<rect width="25" height="25" fill="white"/>
</clipPath>
</defs>
</svg>
