<svg width="25" height="25" viewBox="0 0 25 25" fill="none" xmlns="http://www.w3.org/2000/svg">
<path d="M15.4773 7.30172C15.4773 8.90237 14.1172 10.328 12.5 10.328C10.8828 10.328 9.52273 8.90237 9.52273 7.30172C9.52273 5.65324 10.9281 4.125 12.5 4.125C14.0719 4.125 15.4773 5.65324 15.4773 7.30172ZM20.875 17.477C20.875 18.222 20.4677 19.0267 19.1756 19.7002C17.8503 20.3909 15.6894 20.8752 12.5 20.8752C9.31059 20.8752 7.14966 20.3909 5.82443 19.7002C4.53226 19.0267 4.125 18.222 4.125 17.477C4.125 16.8789 4.67999 16.0302 6.2956 15.2723C7.83177 14.5516 10.0243 14.0788 12.5 14.0788C14.9757 14.0788 17.1682 14.5516 18.7044 15.2723C20.32 16.0302 20.875 16.8789 20.875 17.477Z" stroke="#231E20" stroke-width="2"/>
</svg>
