<svg width="25" height="25" viewBox="0 0 25 25" fill="none" xmlns="http://www.w3.org/2000/svg">
<path d="M12.5 22.9167C18.253 22.9167 22.9167 18.253 22.9167 12.5C22.9167 6.74704 18.253 2.08334 12.5 2.08334C6.74703 2.08334 2.08333 6.74704 2.08333 12.5C2.08333 18.253 6.74703 22.9167 12.5 22.9167Z" stroke="#231E20" stroke-width="2" stroke-linecap="round" stroke-linejoin="round"/>
<path d="M12.5 18.75C15.9518 18.75 18.75 15.9518 18.75 12.5C18.75 9.04823 15.9518 6.25001 12.5 6.25001C9.04822 6.25001 6.25 9.04823 6.25 12.5C6.25 15.9518 9.04822 18.75 12.5 18.75Z" stroke="#231E20" stroke-width="2" stroke-linecap="round" stroke-linejoin="round"/>
<path d="M12.5 14.5833C13.6506 14.5833 14.5833 13.6506 14.5833 12.5C14.5833 11.3494 13.6506 10.4167 12.5 10.4167C11.3494 10.4167 10.4167 11.3494 10.4167 12.5C10.4167 13.6506 11.3494 14.5833 12.5 14.5833Z" stroke="#231E20" stroke-width="2" stroke-linecap="round" stroke-linejoin="round"/>
</svg>
