<svg width="25" height="25" viewBox="0 0 25 25" fill="none" xmlns="http://www.w3.org/2000/svg">
<path d="M23.9583 4.16667V10.4167M23.9583 10.4167H17.7083M23.9583 10.4167L19.125 5.87501C18.0055 4.75492 16.6204 3.93668 15.0991 3.49665C13.5779 3.05661 11.9699 3.00912 10.4253 3.35861C8.88068 3.7081 7.44978 4.44317 6.2661 5.49524C5.08242 6.5473 4.18454 7.88208 3.65624 9.37501M1.04166 20.8333V14.5833M1.04166 14.5833H7.29166M1.04166 14.5833L5.87499 19.125C6.99452 20.2451 8.37955 21.0633 9.90083 21.5034C11.4221 21.9434 13.0301 21.9909 14.5747 21.6414C16.1193 21.2919 17.5502 20.5568 18.7339 19.5048C19.9176 18.4527 20.8154 17.1179 21.3437 15.625" stroke="#1E1E1E" stroke-width="2" stroke-linecap="round" stroke-linejoin="round"/>
</svg>
